# xmcd
#
# Track frame offsets: 
#        150
#        12242
#        26557
#        37958
#        50005
#        61163
#        71820
#        88395
#        106171
#        124613
#        135082
#        147711
#        158171
#        175342
#        190047
#        204124
#        228175
#        241053
#        254617
#        270479
#
# Disc length: 3771 seconds
#
# Revision: 2
# Processed by: cddbd v1.5.2PL0 Copyright (c) Steve Scherf et al.
# Submitted via: ExactAudioCopy v0.99pb4
#
DISCID=0e0eb914
DTITLE=Various Artist - The Ultimate Country Collection
DYEAR=1900
DGENRE=Country
TTITLE0=Dolly Parton - Jolene
TTITLE1=Glen Campbell - Rhinestone Cowboy
TTITLE2=Crystal Gayle - Don't it Make My Brown Eyes Blue
TTITLE3=Brenda Lee - I'm Sorry
TTITLE4=Loretta Lynn - Help Me Make it Through the Night
TTITLE5=Slim Whitman - Serenade
TTITLE6=Waylon Jennings - Rose in Paradise
TTITLE7=Lee Greenwood - The Wind Beneath My Wings
TTITLE8=Don Williams - I believe in You
TTITLE9=The Everly Brothers - ('Til) I Kissed You
TTITLE10=Ray Stevens - Misty
TTITLE11=Willie Nelson - Heartaches by the Number
TTITLE12=Don McLean - Crying
TTITLE13=The Bellamy Brothers - Let Your Love Flow
TTITLE14=Don Williams - Lone Star State of Mind
TTITLE15=The Judds - Love Can Build a Bridge
TTITLE16=Bobbie Gentry - I'll Never Fall in Love Again
TTITLE17=Kenny Rogers and The First Edition - Ruby Don't Take Your Lov
TTITLE17=e to Town
TTITLE18=Billie Jo Spears - Blanket on the Ground
TTITLE19=Patsy Cline - Crazy
EXTD=ID3G: 2
EXTT0=
EXTT1=
EXTT2=
EXTT3=
EXTT4=
EXTT5=
EXTT6=
EXTT7=
EXTT8=
EXTT9=
EXTT10=
EXTT11=
EXTT12=
EXTT13=
EXTT14=
EXTT15=
EXTT16=
EXTT17=
EXTT18=
EXTT19=
PLAYORDER=
